<svg width="50" height="50" viewBox="0 0 50 50" fill="none" xmlns="http://www.w3.org/2000/svg">
<circle cx="25" cy="25" r="25" fill="#EFF3FF"/>
<path d="M22.8132 28.9038L22 31.75L21.1868 28.9038C20.7597 27.4089 19.5911 26.2403 18.0962 25.8132L15.25 25L18.0962 24.1868C19.5911 23.7597 20.7597 22.5911 21.1868 21.0962L22 18.25L22.8132 21.0962C23.2403 22.5911 24.4089 23.7597 25.9038 24.1868L28.75 25L25.9038 25.8132C24.4089 26.2403 23.2403 27.4089 22.8132 28.9038Z" stroke="#1F2937" stroke-width="1.5" stroke-linecap="round" stroke-linejoin="round"/>
<path d="M31.2589 21.7145L31 22.75L30.7411 21.7145C30.4388 20.5053 29.4947 19.5612 28.2855 19.2589L27.25 19L28.2855 18.7411C29.4947 18.4388 30.4388 17.4947 30.7411 16.2855L31 15.25L31.2589 16.2855C31.5612 17.4947 32.5053 18.4388 33.7145 18.7411L34.75 19L33.7145 19.2589C32.5053 19.5612 31.5612 20.5053 31.2589 21.7145Z" stroke="#1F2937" stroke-width="1.5" stroke-linecap="round" stroke-linejoin="round"/>
<path d="M29.8942 33.5673L29.5 34.75L29.1058 33.5673C28.8818 32.8954 28.3546 32.3682 27.6827 32.1442L26.5 31.75L27.6827 31.3558C28.3546 31.1318 28.8818 30.6046 29.1058 29.9327L29.5 28.75L29.8942 29.9327C30.1182 30.6046 30.6454 31.1318 31.3173 31.3558L32.5 31.75L31.3173 32.1442C30.6454 32.3682 30.1182 32.8954 29.8942 33.5673Z" stroke="#1F2937" stroke-width="1.5" stroke-linecap="round" stroke-linejoin="round"/>
</svg>
