<svg width="50" height="50" viewBox="0 0 50 50" fill="none" xmlns="http://www.w3.org/2000/svg">
<circle cx="25" cy="25" r="25" fill="#FFEDD5"/>
<path d="M22 25H25.75M22 28H25.75M22 31H25.75M28.75 31.75H31C32.2426 31.75 33.25 30.7426 33.25 29.5V19.1082C33.25 17.9732 32.405 17.0102 31.2739 16.9163C30.9006 16.8853 30.5261 16.8586 30.1505 16.8362M24.3495 16.8362C24.2848 17.046 24.25 17.2689 24.25 17.5C24.25 17.9142 24.5858 18.25 25 18.25H29.5C29.9142 18.25 30.25 17.9142 30.25 17.5C30.25 17.2689 30.2152 17.046 30.1505 16.8362M24.3495 16.8362C24.6328 15.9176 25.4884 15.25 26.5 15.25H28C29.0116 15.25 29.8672 15.9176 30.1505 16.8362M24.3495 16.8362C23.9739 16.8586 23.5994 16.8853 23.2261 16.9163C22.095 17.0102 21.25 17.9732 21.25 19.1082V21.25M21.25 21.25H17.875C17.2537 21.25 16.75 21.7537 16.75 22.375V33.625C16.75 34.2463 17.2537 34.75 17.875 34.75H27.625C28.2463 34.75 28.75 34.2463 28.75 33.625V22.375C28.75 21.7537 28.2463 21.25 27.625 21.25H21.25ZM19.75 25H19.7575V25.0075H19.75V25ZM19.75 28H19.7575V28.0075H19.75V28ZM19.75 31H19.7575V31.0075H19.75V31Z" stroke="#B45309" stroke-width="1.5" stroke-linecap="round" stroke-linejoin="round"/>
</svg>
